<svg xmlns="http://www.w3.org/2000/svg" xmlns:xlink="http://www.w3.org/1999/xlink" contentStyleType="text/css" data-diagram-type="DESCRIPTION" height="256px" preserveAspectRatio="none" style="width:1087px;height:256px;background:#FFFFFF;" version="1.1" viewBox="0 0 1087 256" width="1087px" zoomAndPan="magnify"><defs/><g><!--cluster Sistema Embarcado--><g class="cluster" data-entity="Sistema Embarcado" data-source-line="5" data-uid="ent0003" id="cluster_Sistema Embarcado"><rect fill="none" height="243" rx="2.5" ry="2.5" style="stroke:#181818;stroke-width:1;" width="978.12" x="103.2" y="7"/><text fill="#000000" font-family="sans-serif" font-size="14" font-weight="bold" lengthAdjust="spacing" textLength="156.2217" x="514.1492" y="21.9951">Sistema Embarcado</text></g><!--entity UC1--><g class="entity" data-entity="UC1" data-source-line="6" data-uid="ent0004" id="entity_UC1"><ellipse cx="194.3694" cy="138.9999" fill="#F1F1F1" rx="68.2994" ry="16.0599" style="stroke:#181818;stroke-width:0.5;"/><text fill="#000000" font-family="sans-serif" font-size="14" lengthAdjust="spacing" textLength="102.0605" x="143.3391" y="143.6483">Iniciar sistema</text></g><!--entity UC2--><g class="entity" data-entity="UC2" data-source-line="7" data-uid="ent0005" id="entity_UC2"><ellipse cx="441.7241" cy="138.9988" fill="#F1F1F1" rx="112.1941" ry="24.8388" style="stroke:#181818;stroke-width:0.5;"/><text fill="#000000" font-family="sans-serif" font-size="14" lengthAdjust="spacing" textLength="202.6172" x="340.4155" y="143.6473">Capturar imagem da c&#226;mera</text></g><!--entity UC3--><g class="entity" data-entity="UC3" data-source-line="8" data-uid="ent0006" id="entity_UC3"><ellipse cx="712.7097" cy="138.9979" fill="#F1F1F1" rx="98.7897" ry="22.1579" style="stroke:#181818;stroke-width:0.5;"/><text fill="#000000" font-family="sans-serif" font-size="14" lengthAdjust="spacing" textLength="173.3867" x="626.0163" y="143.6464">Realizar infer&#234;ncia YOLO</text></g><!--entity UC4--><g class="entity" data-entity="UC4" data-source-line="9" data-uid="ent0007" id="entity_UC4"><ellipse cx="968.4077" cy="214.9975" fill="#F1F1F1" rx="84.0377" ry="19.2075" style="stroke:#181818;stroke-width:0.5;"/><text fill="#000000" font-family="sans-serif" font-size="14" lengthAdjust="spacing" textLength="140.1025" x="898.3564" y="219.646">Gerar feedback t&#225;til</text></g><!--entity UC5--><g class="entity" data-entity="UC5" data-source-line="10" data-uid="ent0008" id="entity_UC5"><ellipse cx="968.41" cy="139.002" fill="#F1F1F1" rx="96.91" ry="21.782" style="stroke:#181818;stroke-width:0.5;"/><text fill="#000000" font-family="sans-serif" font-size="14" lengthAdjust="spacing" textLength="169.2236" x="883.7982" y="143.6504">Gerar feedback auditivo</text></g><!--entity UC6--><g class="entity" data-entity="UC6" data-source-line="11" data-uid="ent0009" id="entity_UC6"><ellipse cx="968.4058" cy="61.9992" fill="#F1F1F1" rx="90.2958" ry="20.4592" style="stroke:#181818;stroke-width:0.5;"/><text fill="#000000" font-family="sans-serif" font-size="14" lengthAdjust="spacing" textLength="154.4102" x="891.2007" y="66.6476">Armazenar resultados</text></g><!--entity UC7--><g class="entity" data-entity="UC7" data-source-line="12" data-uid="ent0010" id="entity_UC7"><ellipse cx="194.373" cy="71.0026" fill="#F1F1F1" rx="75.163" ry="17.4326" style="stroke:#181818;stroke-width:0.5;"/><text fill="#000000" font-family="sans-serif" font-size="14" lengthAdjust="spacing" textLength="119.123" x="134.8115" y="75.651">Encerrar sistema</text></g><!--entity Usuario--><g class="entity" data-entity="Usuario" data-source-line="3" data-uid="ent0002" id="entity_Usuario"><ellipse cx="32.6021" cy="75.35" fill="#F1F1F1" rx="8" ry="8" style="stroke:#181818;stroke-width:0.5;"/><path d="M32.6021,83.35 L32.6021,110.35 M19.6021,91.35 L45.6021,91.35 M32.6021,110.35 L19.6021,125.35 M32.6021,110.35 L45.6021,125.35" fill="none" style="stroke:#181818;stroke-width:0.5;"/><text fill="#000000" font-family="sans-serif" font-size="14" lengthAdjust="spacing" textLength="53.2041" x="6" y="139.8451">Usu&#225;rio</text></g><!--link Usuario to UC1--><g class="link" data-entity-1="Usuario" data-entity-2="UC1" data-source-line="15" data-uid="lnk11" id="link_Usuario_UC1"><path d="M59.63,110.54 C82,115.3 109.0515,121.0505 136.6215,126.9205" fill="none" id="Usuario-to-UC1" style="stroke:#181818;stroke-width:1;"/><polygon fill="#181818" points="142.49,128.17,134.5203,122.3835,137.5996,127.1288,132.8543,130.2081,142.49,128.17" style="stroke:#181818;stroke-width:1;"/></g><!--link Usuario to UC7--><g class="link" data-entity-1="Usuario" data-entity-2="UC7" data-source-line="16" data-uid="lnk12" id="link_Usuario_UC7"><path d="M59.63,99.46 C80.76,94.96 105.4312,89.708 132.0012,84.058" fill="none" id="Usuario-to-UC7" style="stroke:#181818;stroke-width:1;"/><polygon fill="#181818" points="137.87,82.81,128.2349,80.7694,132.9794,83.85,129.8988,88.5945,137.87,82.81" style="stroke:#181818;stroke-width:1;"/></g><!--link UC1 to UC2--><g class="link" data-entity-1="UC1" data-entity-2="UC2" data-source-line="17" data-uid="lnk13" id="link_UC1_UC2"><path d="M263.06,139 C283.63,139 300.8,139 323.44,139" fill="none" id="UC1-to-UC2" style="stroke:#181818;stroke-width:1;"/><polygon fill="#181818" points="329.44,139,320.44,135,324.44,139,320.44,143,329.44,139" style="stroke:#181818;stroke-width:1;"/></g><!--link UC2 to UC3--><g class="link" data-entity-1="UC2" data-entity-2="UC3" data-source-line="18" data-uid="lnk14" id="link_UC2_UC3"><path d="M554.07,139 C573.87,139 588.36,139 607.76,139" fill="none" id="UC2-to-UC3" style="stroke:#181818;stroke-width:1;"/><polygon fill="#181818" points="613.76,139,604.76,135,608.76,139,604.76,143,613.76,139" style="stroke:#181818;stroke-width:1;"/></g><!--link UC3 to UC4--><g class="link" data-entity-1="UC3" data-entity-2="UC4" data-source-line="19" data-uid="lnk15" id="link_UC3_UC4"><path d="M773.19,156.82 C816.54,169.81 868.9326,185.4974 910.2726,197.8874" fill="none" id="UC3-to-UC4" style="stroke:#181818;stroke-width:1;"/><polygon fill="#181818" points="916.02,199.61,908.5472,193.1946,911.2305,198.1745,906.2505,200.8578,916.02,199.61" style="stroke:#181818;stroke-width:1;"/></g><!--link UC3 to UC5--><g class="link" data-entity-1="UC3" data-entity-2="UC5" data-source-line="20" data-uid="lnk16" id="link_UC3_UC5"><path d="M811.79,139 C831.32,139 845.8,139 865.25,139" fill="none" id="UC3-to-UC5" style="stroke:#181818;stroke-width:1;"/><polygon fill="#181818" points="871.25,139,862.25,135,866.25,139,862.25,143,871.25,139" style="stroke:#181818;stroke-width:1;"/></g><!--link UC3 to UC6--><g class="link" data-entity-1="UC3" data-entity-2="UC6" data-source-line="21" data-uid="lnk17" id="link_UC3_UC6"><path d="M772.87,121.04 C815.18,108.2 865.9683,92.7816 907.1783,80.2816" fill="none" id="UC3-to-UC6" style="stroke:#181818;stroke-width:1;"/><polygon fill="#181818" points="912.92,78.54,903.1464,77.3246,908.1353,79.9913,905.4685,84.9802,912.92,78.54" style="stroke:#181818;stroke-width:1;"/></g><!--SRC=[VT3FIiGm40RmUvvYw7qFjlld9aXPH10M50yUPzDf7RP9PP9wMF5XrgElqHTpwaRO89ZJD-6NX7mzjH7Y0CBTIuI6XMpamHk3DWu2nLCOfvFmK006q04r6pChz5rFK3noYEGGjcwFOh5H-Mv0rnZ8Ob1nvzao2eIpFDzKN-MenjSuYYfss9631i5EduxarvUvVo3i-JXxtv9CNrwVWEVT_IxnAkUtDD_T4ZLxj0U8qobod-ZoNufZmv7VKW7rAiStul18NWy8XR6F-l-Gv3gNMsz9v4yD6_DXJEeL5elhdsRoUMDqB-LISvbofRbAUNcHLnTv_Gq0]--></g></svg>