<svg xmlns="http://www.w3.org/2000/svg" xmlns:xlink="http://www.w3.org/1999/xlink" contentStyleType="text/css" data-diagram-type="SEQUENCE" height="1234px" preserveAspectRatio="none" style="width:954px;height:1234px;background:#FFFFFF;" version="1.1" viewBox="0 0 954 1234" width="954px" zoomAndPan="magnify"><defs/><g><rect fill="#87CEFA" height="1222.0156" style="stroke:#181818;stroke-width:0.5;" width="779.4331" x="97.1616" y="6"/><text fill="#000000" font-family="sans-serif" font-size="18" font-weight="bold" lengthAdjust="spacing" textLength="45.8174" x="463.9695" y="22.708">SISP</text><g><title>Usu.rio</title><rect fill="#000000" fill-opacity="0.00000" height="1024.5" width="8" x="42.5029" y="114.2344"/><line style="stroke:#181818;stroke-width:0.5;stroke-dasharray:5.0,5.0;" x1="46.0029" x2="46.0029" y1="114.2344" y2="1138.7344"/></g><g><title>Controle de</title><rect fill="#000000" fill-opacity="0.00000" height="1024.5" width="8" x="153.04" y="114.2344"/><line style="stroke:#181818;stroke-width:0.5;stroke-dasharray:5.0,5.0;" x1="156.54" x2="156.54" y1="114.2344" y2="1138.7344"/></g><g><title>Thread</title><rect fill="#000000" fill-opacity="0.00000" height="1024.5" width="8" x="318.5957" y="114.2344"/><line style="stroke:#181818;stroke-width:0.5;stroke-dasharray:5.0,5.0;" x1="322.0957" x2="322.0957" y1="114.2344" y2="1138.7344"/></g><g><title/><rect fill="#FFFFFF" height="915.6406" style="stroke:#181818;stroke-width:1;" width="10" x="317.0957" y="205.0938"/></g><line style="stroke:#A80036;stroke-width:2;" x1="313.0957" x2="331.0957" y1="1111.7344" y2="1129.7344"/><line style="stroke:#A80036;stroke-width:2;" x1="313.0957" x2="331.0957" y1="1129.7344" y2="1111.7344"/><g><title>YOLO</title><rect fill="#000000" fill-opacity="0.00000" height="1024.5" width="8" x="520.5635" y="114.2344"/><line style="stroke:#181818;stroke-width:0.5;stroke-dasharray:5.0,5.0;" x1="524.0635" x2="524.0635" y1="114.2344" y2="1138.7344"/></g><g><title/><rect fill="#FFFFFF" height="166.7188" style="stroke:#181818;stroke-width:1;" width="10" x="519.0635" y="351.8594"/></g><g><title>Motor</title><rect fill="#000000" fill-opacity="0.00000" height="1024.5" width="8" x="661.9424" y="114.2344"/><line style="stroke:#181818;stroke-width:0.5;stroke-dasharray:5.0,5.0;" x1="665.4424" x2="665.4424" y1="114.2344" y2="1138.7344"/></g><g><title/><rect fill="#FFFFFF" height="437.3906" style="stroke:#181818;stroke-width:1;" width="10" x="660.4424" y="613.4375"/></g><line style="stroke:#A80036;stroke-width:2;" x1="656.4424" x2="674.4424" y1="1041.8281" y2="1059.8281"/><line style="stroke:#A80036;stroke-width:2;" x1="656.4424" x2="674.4424" y1="1059.8281" y2="1041.8281"/><g><title>Thread</title><rect fill="#000000" fill-opacity="0.00000" height="1024.5" width="8" x="826.9092" y="114.2344"/><line style="stroke:#181818;stroke-width:0.5;stroke-dasharray:5.0,5.0;" x1="830.4092" x2="830.4092" y1="114.2344" y2="1138.7344"/></g><g><title/><rect fill="#FFFFFF" height="472.3438" style="stroke:#181818;stroke-width:1;" width="10" x="825.4092" y="613.4375"/></g><line style="stroke:#A80036;stroke-width:2;" x1="821.4092" x2="839.4092" y1="1076.7813" y2="1094.7813"/><line style="stroke:#A80036;stroke-width:2;" x1="821.4092" x2="839.4092" y1="1094.7813" y2="1076.7813"/><text fill="#000000" font-family="sans-serif" font-size="20" lengthAdjust="spacing" textLength="76.0059" x="5" y="109.5176">Usu&#225;rio</text><ellipse cx="46.0029" cy="39.4531" fill="#E2E2F0" rx="8" ry="8" style="stroke:#181818;stroke-width:0.5;"/><path d="M46.0029,47.4531 L46.0029,74.4531 M33.0029,55.4531 L59.0029,55.4531 M46.0029,74.4531 L33.0029,89.4531 M46.0029,74.4531 L59.0029,89.4531" fill="none" style="stroke:#181818;stroke-width:0.5;"/><text fill="#000000" font-family="sans-serif" font-size="18" lengthAdjust="spacing" textLength="104.7568" x="101.1616" y="89.0361">Controle de</text><text fill="#000000" font-family="sans-serif" font-size="18" lengthAdjust="spacing" textLength="63.2988" x="121.8906" y="109.9893">Sess&#227;o</text><ellipse cx="156.54" cy="56.3281" fill="#E2E2F0" rx="12" ry="12" style="stroke:#181818;stroke-width:0.5;"/><polygon fill="#181818" points="152.54,44.3281,158.54,39.3281,156.54,44.3281,158.54,49.3281,152.54,44.3281" style="stroke:#181818;stroke-width:1;"/><rect fill="#E2E2F0" height="60.5625" rx="2.5" ry="2.5" style="stroke:#181818;stroke-width:0.5;" width="108.3359" x="267.9277" y="52.6719"/><text fill="#000000" font-family="sans-serif" font-size="20" lengthAdjust="spacing" textLength="70.3711" x="286.9102" y="78.2363">Thread</text><text fill="#000000" font-family="sans-serif" font-size="20" lengthAdjust="spacing" textLength="94.3359" x="274.9277" y="101.5176">Detec&#231;&#227;o</text><rect fill="#E2E2F0" height="37.2813" rx="2.5" ry="2.5" style="stroke:#181818;stroke-width:0.5;" width="68.8438" x="489.6416" y="75.9531"/><text fill="#000000" font-family="sans-serif" font-size="20" lengthAdjust="spacing" textLength="54.8438" x="496.6416" y="101.5176">YOLO</text><rect fill="#E2E2F0" height="37.2813" rx="2.5" ry="2.5" style="stroke:#181818;stroke-width:0.5;" width="71.793" x="629.5459" y="75.9531"/><text fill="#000000" font-family="sans-serif" font-size="20" lengthAdjust="spacing" textLength="57.793" x="636.5459" y="101.5176">Motor</text><rect fill="#E2E2F0" height="60.5625" rx="2.5" ry="2.5" style="stroke:#181818;stroke-width:0.5;" width="84.3711" x="788.2236" y="52.6719"/><text fill="#000000" font-family="sans-serif" font-size="20" lengthAdjust="spacing" textLength="70.3711" x="795.2236" y="78.2363">Thread</text><text fill="#000000" font-family="sans-serif" font-size="20" lengthAdjust="spacing" textLength="56.8457" x="801.9863" y="101.5176">&#193;udio</text><text fill="#000000" font-family="sans-serif" font-size="20" lengthAdjust="spacing" textLength="76.0059" x="5" y="1217.2988">Usu&#225;rio</text><ellipse cx="46.0029" cy="1147.2344" fill="#E2E2F0" rx="8" ry="8" style="stroke:#181818;stroke-width:0.5;"/><path d="M46.0029,1155.2344 L46.0029,1182.2344 M33.0029,1163.2344 L59.0029,1163.2344 M46.0029,1182.2344 L33.0029,1197.2344 M46.0029,1182.2344 L59.0029,1197.2344" fill="none" style="stroke:#181818;stroke-width:0.5;"/><text fill="#000000" font-family="sans-serif" font-size="18" lengthAdjust="spacing" textLength="104.7568" x="101.1616" y="1187.4424">Controle de</text><text fill="#000000" font-family="sans-serif" font-size="18" lengthAdjust="spacing" textLength="63.2988" x="121.8906" y="1208.3955">Sess&#227;o</text><ellipse cx="156.54" cy="1154.7344" fill="#E2E2F0" rx="12" ry="12" style="stroke:#181818;stroke-width:0.5;"/><polygon fill="#181818" points="152.54,1142.7344,158.54,1137.7344,156.54,1142.7344,158.54,1147.7344,152.54,1142.7344" style="stroke:#181818;stroke-width:1;"/><rect fill="#E2E2F0" height="60.5625" rx="2.5" ry="2.5" style="stroke:#181818;stroke-width:0.5;" width="108.3359" x="267.9277" y="1138.7344"/><text fill="#000000" font-family="sans-serif" font-size="20" lengthAdjust="spacing" textLength="70.3711" x="286.9102" y="1164.2988">Thread</text><text fill="#000000" font-family="sans-serif" font-size="20" lengthAdjust="spacing" textLength="94.3359" x="274.9277" y="1187.5801">Detec&#231;&#227;o</text><rect fill="#E2E2F0" height="37.2813" rx="2.5" ry="2.5" style="stroke:#181818;stroke-width:0.5;" width="68.8438" x="489.6416" y="1138.7344"/><text fill="#000000" font-family="sans-serif" font-size="20" lengthAdjust="spacing" textLength="54.8438" x="496.6416" y="1164.2988">YOLO</text><rect fill="#E2E2F0" height="37.2813" rx="2.5" ry="2.5" style="stroke:#181818;stroke-width:0.5;" width="71.793" x="629.5459" y="1138.7344"/><text fill="#000000" font-family="sans-serif" font-size="20" lengthAdjust="spacing" textLength="57.793" x="636.5459" y="1164.2988">Motor</text><rect fill="#E2E2F0" height="60.5625" rx="2.5" ry="2.5" style="stroke:#181818;stroke-width:0.5;" width="84.3711" x="788.2236" y="1138.7344"/><text fill="#000000" font-family="sans-serif" font-size="20" lengthAdjust="spacing" textLength="70.3711" x="795.2236" y="1164.2988">Thread</text><text fill="#000000" font-family="sans-serif" font-size="20" lengthAdjust="spacing" textLength="56.8457" x="801.9863" y="1187.5801">&#193;udio</text><polygon fill="#181818" points="144.54,166.1406,154.54,170.1406,144.54,174.1406,148.54,170.1406" style="stroke:#181818;stroke-width:1;"/><line style="stroke:#181818;stroke-width:2;" x1="46.0029" x2="150.54" y1="170.1406" y2="170.1406"/><text fill="#000000" font-family="sans-serif" font-size="18" lengthAdjust="spacing" textLength="86.5371" x="53.0029" y="142.9424">Pressiona</text><text fill="#000000" font-family="sans-serif" font-size="18" lengthAdjust="spacing" textLength="68.2734" x="53.0029" y="163.8955">o bot&#227;o</text><polygon fill="#181818" points="305.0957,201.0938,315.0957,205.0938,305.0957,209.0938,309.0957,205.0938" style="stroke:#181818;stroke-width:1;"/><line style="stroke:#181818;stroke-width:2;" x1="156.54" x2="311.0957" y1="205.0938" y2="205.0938"/><text fill="#000000" font-family="sans-serif" font-size="18" lengthAdjust="spacing" textLength="114.6182" x="163.54" y="198.8486">Inicia sess&#227;o</text><path d="M30.0029,217.0938 L118.79,217.0938 L118.79,230.0469 L108.79,240.0469 L30.0029,240.0469 L30.0029,217.0938" fill="#EEEEEE" style="stroke:#000000;stroke-width:1.5;"/><rect fill="none" height="723.875" style="stroke:#000000;stroke-width:1.5;" width="918.0938" x="30.0029" y="217.0938"/><text fill="#000000" font-family="sans-serif" font-size="18" font-weight="bold" lengthAdjust="spacing" textLength="43.7871" x="45.0029" y="234.8018">loop</text><text fill="#000000" font-family="sans-serif" font-size="18" font-weight="bold" lengthAdjust="spacing" textLength="194.5723" x="133.79" y="235.8018">[Sess&#227;o esta ativa]</text><line style="stroke:#181818;stroke-width:2;" x1="327.0957" x2="369.0957" y1="303.9063" y2="303.9063"/><line style="stroke:#181818;stroke-width:2;" x1="369.0957" x2="369.0957" y1="303.9063" y2="316.9063"/><line style="stroke:#181818;stroke-width:2;" x1="328.0957" x2="369.0957" y1="316.9063" y2="316.9063"/><polygon fill="#181818" points="338.0957,312.9063,328.0957,316.9063,338.0957,320.9063,334.0957,316.9063" style="stroke:#181818;stroke-width:1;"/><text fill="#000000" font-family="sans-serif" font-size="18" lengthAdjust="spacing" textLength="151.2422" x="334.0957" y="276.708">Captura imagem</text><text fill="#000000" font-family="sans-serif" font-size="18" lengthAdjust="spacing" textLength="156.1025" x="334.0957" y="297.6611">usando a c&#226;mera</text><polygon fill="#181818" points="507.0635,347.8594,517.0635,351.8594,507.0635,355.8594,511.0635,351.8594" style="stroke:#181818;stroke-width:1;"/><line style="stroke:#181818;stroke-width:2;" x1="327.0957" x2="513.0635" y1="351.8594" y2="351.8594"/><text fill="#000000" font-family="sans-serif" font-size="18" lengthAdjust="spacing" textLength="73.9072" x="334.0957" y="345.6143">Imagem</text><line style="stroke:#181818;stroke-width:2;" x1="529.0635" x2="571.0635" y1="428.7188" y2="428.7188"/><line style="stroke:#181818;stroke-width:2;" x1="571.0635" x2="571.0635" y1="428.7188" y2="441.7188"/><line style="stroke:#181818;stroke-width:2;" x1="530.0635" x2="571.0635" y1="441.7188" y2="441.7188"/><polygon fill="#181818" points="540.0635,437.7188,530.0635,441.7188,540.0635,445.7188,536.0635,441.7188" style="stroke:#181818;stroke-width:1;"/><text fill="#000000" font-family="sans-serif" font-size="18" lengthAdjust="spacing" textLength="113.124" x="536.0635" y="380.5674">Detec&#231;&#227;o de</text><text fill="#000000" font-family="sans-serif" font-size="18" lengthAdjust="spacing" textLength="122.3789" x="536.0635" y="401.5205">sem&#225;foros de</text><text fill="#000000" font-family="sans-serif" font-size="18" lengthAdjust="spacing" textLength="89.2881" x="536.0635" y="422.4736">pedestres</text><polygon fill="#181818" points="338.0957,514.5781,328.0957,518.5781,338.0957,522.5781,334.0957,518.5781" style="stroke:#181818;stroke-width:1;"/><line style="stroke:#181818;stroke-width:2;stroke-dasharray:2.0,2.0;" x1="332.0957" x2="518.0635" y1="518.5781" y2="518.5781"/><text fill="#000000" font-family="sans-serif" font-size="18" lengthAdjust="spacing" textLength="167.9678" x="344.0957" y="470.4268">Classe e confian&#231;a</text><text fill="#000000" font-family="sans-serif" font-size="18" lengthAdjust="spacing" textLength="152.2969" x="344.0957" y="491.3799">para cada objeto</text><text fill="#000000" font-family="sans-serif" font-size="18" lengthAdjust="spacing" textLength="91.0547" x="344.0957" y="512.333">detectado</text><polygon fill="#FEFFDD" points="207.2529,531.5781,436.2529,531.5781,446.2529,555.5781,436.2529,580.5781,207.2529,580.5781,197.2529,555.5781,207.2529,531.5781" style="stroke:#181818;stroke-width:0.5;"/><text fill="#000000" font-family="sans-serif" font-size="18" lengthAdjust="spacing" textLength="188.0508" x="209.2529" y="552.2861">Trata as detec&#231;&#245;es e</text><text fill="#000000" font-family="sans-serif" font-size="18" lengthAdjust="spacing" textLength="113.6338" x="209.2529" y="573.2393">decide entre</text><text fill="#000000" font-family="sans-serif" font-size="18" font-weight="bold" lengthAdjust="spacing" textLength="53.7363" x="328.6084" y="573.2393">STOP</text><text fill="#000000" font-family="sans-serif" font-size="18" lengthAdjust="spacing" textLength="11.0742" x="388.0664" y="573.2393">e</text><text fill="#000000" font-family="sans-serif" font-size="18" font-weight="bold" lengthAdjust="spacing" textLength="30.0762" x="404.8623" y="573.2393">GO</text><polygon fill="#181818" points="648.4424,609.4375,658.4424,613.4375,648.4424,617.4375,652.4424,613.4375" style="stroke:#181818;stroke-width:1;"/><line style="stroke:#181818;stroke-width:2;" x1="327.0957" x2="654.4424" y1="613.4375" y2="613.4375"/><text fill="#000000" font-family="sans-serif" font-size="18" lengthAdjust="spacing" textLength="135.9668" x="334.0957" y="607.1924">Estado Inferido</text><polygon fill="#181818" points="813.4092,609.4375,823.4092,613.4375,813.4092,617.4375,817.4092,613.4375" style="stroke:#181818;stroke-width:1;"/><line style="stroke:#181818;stroke-width:2;" x1="670.4424" x2="819.4092" y1="613.4375" y2="613.4375"/><text fill="#000000" font-family="sans-serif" font-size="18" lengthAdjust="spacing" textLength="135.9668" x="677.4424" y="607.1924">Estado Inferido</text><line style="stroke:#181818;stroke-width:2;" x1="670.4424" x2="712.4424" y1="690.2969" y2="690.2969"/><line style="stroke:#181818;stroke-width:2;" x1="712.4424" x2="712.4424" y1="690.2969" y2="703.2969"/><line style="stroke:#181818;stroke-width:2;" x1="671.4424" x2="712.4424" y1="703.2969" y2="703.2969"/><polygon fill="#181818" points="681.4424,699.2969,671.4424,703.2969,681.4424,707.2969,677.4424,703.2969" style="stroke:#181818;stroke-width:1;"/><text fill="#000000" font-family="sans-serif" font-size="18" lengthAdjust="spacing" textLength="72.29" x="677.4424" y="642.1455">Atualiza</text><text fill="#000000" font-family="sans-serif" font-size="18" lengthAdjust="spacing" textLength="82.6875" x="677.4424" y="663.0986">feedback</text><text fill="#000000" font-family="sans-serif" font-size="18" lengthAdjust="spacing" textLength="99.0967" x="677.4424" y="684.0518">t&#225;til (PWM)</text><line style="stroke:#181818;stroke-width:2;" x1="835.4092" x2="877.4092" y1="690.2969" y2="690.2969"/><line style="stroke:#181818;stroke-width:2;" x1="877.4092" x2="877.4092" y1="690.2969" y2="703.2969"/><line style="stroke:#181818;stroke-width:2;" x1="836.4092" x2="877.4092" y1="703.2969" y2="703.2969"/><polygon fill="#181818" points="846.4092,699.2969,836.4092,703.2969,846.4092,707.2969,842.4092,703.2969" style="stroke:#181818;stroke-width:1;"/><text fill="#000000" font-family="sans-serif" font-size="18" lengthAdjust="spacing" textLength="72.29" x="842.4092" y="642.1455">Atualiza</text><text fill="#000000" font-family="sans-serif" font-size="18" lengthAdjust="spacing" textLength="82.6875" x="842.4092" y="663.0986">feedback</text><text fill="#000000" font-family="sans-serif" font-size="18" lengthAdjust="spacing" textLength="72.5889" x="842.4092" y="684.0518">auditivo</text><line style="stroke:#181818;stroke-width:2;" x1="327.0957" x2="369.0957" y1="690.2969" y2="690.2969"/><line style="stroke:#181818;stroke-width:2;" x1="369.0957" x2="369.0957" y1="690.2969" y2="703.2969"/><line style="stroke:#181818;stroke-width:2;" x1="328.0957" x2="369.0957" y1="703.2969" y2="703.2969"/><polygon fill="#181818" points="338.0957,699.2969,328.0957,703.2969,338.0957,707.2969,334.0957,703.2969" style="stroke:#181818;stroke-width:1;"/><text fill="#000000" font-family="sans-serif" font-size="18" lengthAdjust="spacing" textLength="94.7461" x="334.0957" y="642.1455">Atualizada</text><text fill="#000000" font-family="sans-serif" font-size="18" lengthAdjust="spacing" textLength="82.4502" x="334.0957" y="663.0986">dados da</text><text fill="#000000" font-family="sans-serif" font-size="18" lengthAdjust="spacing" textLength="61.251" x="334.0957" y="684.0518">sess&#227;o</text><polygon fill="#181818" points="57.0029,734.25,47.0029,738.25,57.0029,742.25,53.0029,738.25" style="stroke:#181818;stroke-width:1;"/><line style="stroke:#181818;stroke-width:2;stroke-dasharray:2.0,2.0;" x1="51.0029" x2="659.4424" y1="738.25" y2="738.25"/><text fill="#000000" font-family="sans-serif" font-size="18" lengthAdjust="spacing" textLength="79.1104" x="63.0029" y="732.0049">Vibra&#231;&#227;o</text><polygon fill="#181818" points="57.0029,769.2031,47.0029,773.2031,57.0029,777.2031,53.0029,773.2031" style="stroke:#181818;stroke-width:1;"/><line style="stroke:#181818;stroke-width:2;stroke-dasharray:2.0,2.0;" x1="51.0029" x2="824.4092" y1="773.2031" y2="773.2031"/><text fill="#000000" font-family="sans-serif" font-size="18" lengthAdjust="spacing" textLength="148.2979" x="63.0029" y="766.958">Comando verbal</text><line style="stroke:#181818;stroke-width:2;" x1="327.0957" x2="369.0957" y1="829.1094" y2="829.1094"/><line style="stroke:#181818;stroke-width:2;" x1="369.0957" x2="369.0957" y1="829.1094" y2="842.1094"/><line style="stroke:#181818;stroke-width:2;" x1="328.0957" x2="369.0957" y1="842.1094" y2="842.1094"/><polygon fill="#181818" points="338.0957,838.1094,328.0957,842.1094,338.0957,846.1094,334.0957,842.1094" style="stroke:#181818;stroke-width:1;"/><text fill="#000000" font-family="sans-serif" font-size="18" lengthAdjust="spacing" textLength="172.626" x="334.0957" y="801.9111">Salva imagem com</text><text fill="#000000" font-family="sans-serif" font-size="18" lengthAdjust="spacing" textLength="143.7803" x="334.0957" y="822.8643">bounding boxes</text><polygon fill="#181818" points="144.54,894.0156,154.54,898.0156,144.54,902.0156,148.54,898.0156" style="stroke:#181818;stroke-width:1;"/><line style="stroke:#181818;stroke-width:2;" x1="46.0029" x2="150.54" y1="898.0156" y2="898.0156"/><text fill="#000000" font-family="sans-serif" font-size="18" lengthAdjust="spacing" textLength="86.5371" x="53.0029" y="870.8174">Pressiona</text><text fill="#000000" font-family="sans-serif" font-size="18" lengthAdjust="spacing" textLength="68.2734" x="53.0029" y="891.7705">o bot&#227;o</text><polygon fill="#181818" points="305.0957,928.9688,315.0957,932.9688,305.0957,936.9688,309.0957,932.9688" style="stroke:#181818;stroke-width:1;"/><line style="stroke:#181818;stroke-width:2;" x1="156.54" x2="311.0957" y1="932.9688" y2="932.9688"/><text fill="#000000" font-family="sans-serif" font-size="18" lengthAdjust="spacing" textLength="136.5557" x="163.54" y="926.7236">Encerra sess&#227;o</text><line style="stroke:#181818;stroke-width:2;" x1="327.0957" x2="369.0957" y1="1002.875" y2="1002.875"/><line style="stroke:#181818;stroke-width:2;" x1="369.0957" x2="369.0957" y1="1002.875" y2="1015.875"/><line style="stroke:#181818;stroke-width:2;" x1="328.0957" x2="369.0957" y1="1015.875" y2="1015.875"/><polygon fill="#181818" points="338.0957,1011.875,328.0957,1015.875,338.0957,1019.875,334.0957,1015.875" style="stroke:#181818;stroke-width:1;"/><text fill="#000000" font-family="sans-serif" font-size="18" lengthAdjust="spacing" textLength="130.8516" x="334.0957" y="975.6768">Salva relat&#243;rio</text><text fill="#000000" font-family="sans-serif" font-size="18" lengthAdjust="spacing" textLength="89.4287" x="334.0957" y="996.6299">da sess&#227;o</text><polygon fill="#181818" points="648.4424,1046.8281,658.4424,1050.8281,648.4424,1054.8281,652.4424,1050.8281" style="stroke:#181818;stroke-width:1;"/><line style="stroke:#181818;stroke-width:2;" x1="327.0957" x2="654.4424" y1="1050.8281" y2="1050.8281"/><text fill="#000000" font-family="sans-serif" font-size="18" lengthAdjust="spacing" textLength="155.5576" x="334.0957" y="1044.583">Desativa o motor</text><polygon fill="#181818" points="813.4092,1081.7813,823.4092,1085.7813,813.4092,1089.7813,817.4092,1085.7813" style="stroke:#181818;stroke-width:1;"/><line style="stroke:#181818;stroke-width:2;" x1="327.0957" x2="819.4092" y1="1085.7813" y2="1085.7813"/><text fill="#000000" font-family="sans-serif" font-size="18" lengthAdjust="spacing" textLength="134.7012" x="334.0957" y="1079.5361">Encerra thread</text><polygon fill="#181818" points="305.0957,1116.7344,315.0957,1120.7344,305.0957,1124.7344,309.0957,1120.7344" style="stroke:#181818;stroke-width:1;"/><line style="stroke:#181818;stroke-width:2;" x1="156.54" x2="311.0957" y1="1120.7344" y2="1120.7344"/><text fill="#000000" font-family="sans-serif" font-size="18" lengthAdjust="spacing" textLength="134.7012" x="163.54" y="1114.4893">Encerra thread</text><!--SRC=[ZLJ1ZX914BttLzHYOfIDYUx9S311GBF98cHdLcF2fPWke6McU-pkMNLlVihgOJ_0-0NpOrRtCC0AQ-H0OEhLgrTLhyQjbIxHOW49VQv8PzItrdn9LofRQt8EpeJRGeQqm2htRupsYReXUF5oBpX5wrMcIjGxmDdpFK0_yyOU3xqpdaAadwkbBaXxoFYBh10dfSLbWU39t82t5Gc1WGSwLwwgRwqo7K07LydeKeYv-GgTv3oPTk3HXLgkVBB-zZhd7E1FnlpMvD0PD3y89CrqmZtMFnkIGNfvaKHikUi5EkdA4igP7fAdhBvhqUbmb8u6wG7-u-HYSaWoDYmwvetJXqlKtokvwIZjNmq5QGdSb12XFtZsgf48FPXQrgsCnfasZF0iIZGn1csKmUbf3yur5q5mJPi0GkJ6bB1f6yXv1FJg6aLKrQRkiVHWWAMlB88gS4d5J5SEjJI0aDK_2hA7gM44JVMO4SFnMHlhmMwOSGsEYlfsOQnnyMz9afLnZtkfzoNbw1m1XQqk5EhwZYSHl0GPIWGp_qJUpBGCLJnA4taaiNMuLK_DakB3bMRlWRackqUVMWnp2M8QcR_90GM-J4akomOYw7QJT3BjTY7yV3lfTiN18CRD4aOkQE1TBCYgZPZ78HXwuZqV1KNKU4FJWxwlC5SttEQ2ICunMy-qhs-zok79zCFuwOOqqhMqnxEGFSPZQ6KSNNcR9pbJiYoU18OjHTVif75ES6OFtgkvnRZEPWHHnJOwC4Lq30zvZld3HaimlsvjnfjbgyrDfQNIot05x8QO-Z-t471_tmEFc5zlrcwl8PoN4FzGOYb7N__YbqoOmZPDtD_moKcmiujN10QASEdtMCCm0gWjx-Er7zxh8UOF]--></g></svg>